<?xml version="1.0" standalone="no"?>
<!DOCTYPE svg PUBLIC "-//W3C//DTD SVG 1.0//EN" "http://www.w3.org/TR/2001/REC-SVG-20010904/DTD/svg10.dtd">
<svg xmlns="http://www.w3.org/2000/svg" xmlns:xlink="http://www.w3.org/1999/xlink" id="body_1" width="64" height="64">

<g transform="matrix(0.125 0 0 0.125 0 0)">
	<g transform="matrix(1 0 0 1 0 0)">
	</g>
    <path transform="matrix(1 0 0 1 0 0)"  d="M152.003 432.97C 165.115 443.952 182.487 450.704 201.591 450.704L201.591 450.704L310.409 450.704C 329.517 450.704 346.889 443.952 360.002 432.97C 369.189 425.275 376.255 415.509 380.288 404.449C 382.747 397.717 384.131 390.532 384.131 383.044L384.131 383.044L384.131 128.956C 384.131 91.642 351.061 61.29499 310.409 61.29499L310.409 61.29499L201.591 61.29499C 160.944 61.29499 127.869 91.64199 127.869 128.956L127.869 128.956L127.869 383.044C 127.869 390.532 129.253 397.717 131.711 404.449C 135.74 415.51 142.817 425.275 152.003 432.97zM354.172 404.449C 345.82 418.788 329.366 428.563 310.409 428.563L310.409 428.563L201.591 428.563C 182.634 428.563 166.175 418.788 157.833 404.449C 155.625 400.651 154.064 396.51 153.092 392.172L153.092 392.172L358.902 392.172C 357.936 396.51 356.375 400.651 354.172 404.449zM201.591 83.436L310.409 83.436C 333.041 83.436 352.101 97.373 358.044 116.393L358.044 116.393L153.956 116.393C 159.904 97.373 178.954 83.436 201.591 83.436zM152.003 375.928L152.003 128.956C 152.003 128.711 152.037 128.475 152.042 128.229L152.042 128.229L359.963 128.229C 359.963 128.475 360.002 128.71 360.002 128.956L360.002 128.956L360.002 375.929L360.002 380.335L152.003 380.335L152.003 375.928z" stroke="none" fill="#FFC93C" fill-rule="nonzero" />
	<g transform="matrix(1 0 0 1 0 0)">
	</g>
    <path transform="matrix(1 0 0 1 0 0)"  d="M255.998 423.302C 263.29 423.302 269.208 417.394 269.208 410.102C 269.208 402.81 263.289 396.892 255.998 396.892C 248.706 396.892 242.797 402.81 242.797 410.102C 242.797 417.394 248.705 423.302 255.998 423.302z" stroke="none" fill="#FFC93C" fill-rule="nonzero" />
	<g transform="matrix(1 0 0 1 0 0)">
	</g>
    <path transform="matrix(1 0 0 1 0 0)"  d="M326.152 100.15C 326.152 98.83557 325.6873 97.71362 324.7578 96.78417C 323.8284 95.85472 322.7065 95.39 321.392 95.39C 320.0776 95.39 318.9556 95.85472 318.0262 96.78417C 317.0967 97.71362 316.632 98.83557 316.632 100.15C 316.632 101.4644 317.0967 102.5864 318.0262 103.5158C 318.9556 104.4453 320.0776 104.91 321.392 104.91C 322.7065 104.91 323.8284 104.4453 324.7578 103.5158C 325.6873 102.5864 326.152 101.4644 326.152 100.15" stroke="none" fill="#FFC93C" fill-rule="nonzero" />
	<g transform="matrix(1 0 0 1 0 0)">
	</g>
    <path transform="matrix(1 0 0 1 0 0)"  d="M305.075 95.39L200.374 95.39C 197.749 95.39 195.619 97.52 195.619 100.15C 195.619 102.78 197.749 104.91 200.374 104.91L200.374 104.91L305.075 104.91C 307.7 104.91 309.83 102.78 309.83 100.15C 309.83 97.52 307.7 95.39 305.075 95.39z" stroke="none" fill="#FFC93C" fill-rule="nonzero" />
</g>
</svg>